<?xml version="1.0" standalone="no"?>
<!DOCTYPE svg PUBLIC "-//W3C//DTD SVG 20010904//EN"
 "http://www.w3.org/TR/2001/REC-SVG-20010904/DTD/svg10.dtd">
<svg version="1.0" xmlns="http://www.w3.org/2000/svg"
 width="442.000000pt" height="442.000000pt" viewBox="0 0 442.000000 442.000000"
 preserveAspectRatio="xMidYMid meet">
<metadata>
Created by potrace 1.14, written by Peter Selinger 2001-2017
</metadata>
<g transform="translate(0.000000,442.000000) scale(0.100000,-0.100000)"
fill="#000000" stroke="none">
<path d="M2238 4405 c-2 -2 -59 -6 -126 -9 -83 -3 -128 -8 -139 -17 -11 -9
-14 -10 -10 -2 8 12 5 12 -78 -1 -11 -2 -20 -4 -20 -6 0 -1 -11 -3 -25 -5 -14
-1 -41 -6 -60 -9 -19 -4 -44 -9 -55 -10 -11 -2 -20 -4 -20 -5 0 -2 -11 -4 -25
-7 -14 -2 -32 -7 -40 -11 -17 -7 -26 -10 -55 -16 -11 -2 -29 -7 -40 -11 -74
-28 -96 -36 -103 -37 -4 -1 -16 -5 -27 -10 -11 -4 -28 -10 -38 -13 -10 -3 -16
-10 -13 -14 3 -5 -1 -9 -9 -9 -8 0 -12 4 -8 9 3 6 -14 -2 -37 -17 -23 -14 -48
-24 -56 -21 -9 3 -12 1 -9 -4 3 -6 -1 -10 -9 -10 -9 0 -16 -5 -16 -11 0 -5 -4
-7 -10 -4 -5 3 -10 1 -10 -5 0 -6 -4 -8 -10 -5 -5 3 -10 1 -10 -5 0 -6 -4 -9
-9 -6 -5 3 -14 -1 -21 -9 -7 -8 -17 -15 -23 -15 -14 0 -161 -99 -264 -179
-103 -79 -347 -319 -348 -341 0 -3 -6 -12 -13 -20 -46 -54 -66 -81 -95 -125
-17 -27 -35 -51 -39 -53 -5 -2 -8 -10 -8 -18 0 -8 -5 -14 -11 -14 -5 0 -7 -4
-4 -10 3 -5 3 -10 -2 -10 -4 0 -13 -10 -19 -23 -6 -12 -27 -52 -47 -89 -20
-38 -33 -68 -29 -68 4 0 2 -4 -3 -8 -6 -4 -16 -20 -24 -37 -7 -16 -20 -42 -28
-57 -8 -16 -12 -28 -8 -28 3 0 -3 -17 -14 -39 -11 -21 -22 -50 -25 -64 -2 -14
-9 -35 -16 -46 -6 -12 -8 -21 -4 -21 3 0 1 -7 -6 -15 -7 -8 -10 -15 -7 -15 4
0 -1 -19 -10 -42 -8 -24 -16 -52 -17 -63 -2 -11 -8 -45 -14 -75 -18 -86 -22
-111 -28 -165 -3 -27 -7 -66 -9 -85 -8 -68 -3 -435 5 -435 1 0 3 -14 5 -30 2
-17 6 -46 9 -65 11 -60 18 -104 19 -117 0 -7 4 -13 8 -13 4 0 6 -9 4 -20 -2
-11 1 -22 6 -25 5 -4 7 -10 4 -15 -3 -5 -1 -18 4 -28 5 -10 12 -32 15 -48 2
-16 5 -31 6 -34 1 -3 2 -8 1 -12 0 -5 4 -8 11 -8 6 0 9 -3 6 -6 -4 -3 0 -21 8
-40 8 -19 12 -34 9 -34 -3 0 3 -12 12 -27 10 -15 17 -28 15 -30 -1 -2 5 -20
14 -41 10 -20 18 -40 18 -44 1 -3 4 -10 8 -14 5 -4 8 -16 8 -26 0 -10 4 -18 8
-18 7 0 34 -59 31 -69 0 -2 3 -7 8 -10 5 -3 20 -27 33 -53 14 -27 29 -48 33
-48 5 0 5 -4 2 -10 -3 -5 -2 -10 2 -10 5 0 17 -17 28 -38 21 -40 30 -53 57
-82 9 -10 14 -21 11 -24 -3 -3 2 -8 11 -12 9 -3 16 -10 16 -15 0 -5 12 -23 28
-40 15 -17 26 -36 24 -41 -1 -5 2 -7 8 -3 5 3 10 2 10 -3 0 -5 26 -37 59 -71
32 -33 57 -61 54 -61 -2 0 2 -6 9 -14 7 -8 14 -13 16 -11 1 1 26 -21 56 -49
63 -60 104 -96 111 -96 2 0 16 -11 31 -25 14 -13 31 -22 37 -18 5 3 7 2 4 -4
-5 -8 153 -122 160 -115 2 1 13 -7 25 -18 12 -11 30 -20 40 -20 10 0 18 -4 18
-10 0 -5 11 -12 25 -16 14 -3 25 -10 25 -15 0 -5 3 -8 8 -7 4 1 22 -6 40 -15
17 -10 32 -14 32 -10 0 4 6 0 12 -9 12 -14 63 -33 81 -30 4 1 7 -2 7 -6 0 -4
26 -16 58 -27 31 -10 61 -22 66 -27 6 -4 22 -8 36 -8 14 0 30 -4 36 -9 21 -19
279 -72 366 -75 21 0 38 -3 38 -6 0 -10 333 -15 415 -6 84 10 129 15 160 20
17 3 50 8 75 12 25 3 46 10 48 15 2 4 10 5 17 3 8 -3 20 -2 27 2 7 5 21 9 31
10 9 1 18 2 20 4 1 1 10 3 20 5 10 2 26 7 35 11 26 11 45 16 69 18 11 0 20 3
18 6 -2 3 23 14 56 24 32 9 59 21 59 25 0 4 6 8 13 8 6 0 29 7 50 16 20 9 39
15 41 14 1 -1 10 4 18 11 9 7 44 26 79 44 35 17 79 42 97 55 17 13 32 21 32
18 0 -3 10 3 22 15 12 11 27 20 32 20 6 0 23 11 37 23 13 13 30 26 36 28 13 5
80 57 111 86 12 13 26 23 29 23 6 0 133 121 162 153 9 10 30 34 48 53 17 19
49 55 70 82 21 26 40 49 44 52 3 3 15 22 28 43 12 20 26 37 29 37 4 0 13 14
20 30 8 17 19 36 25 43 7 6 21 29 32 50 11 20 23 37 26 37 4 0 10 13 14 30 4
16 10 30 13 30 6 0 42 71 47 90 0 3 13 31 28 63 15 32 27 64 27 73 0 9 5 12
12 8 7 -4 8 -3 4 4 -4 7 0 27 9 45 8 18 17 42 19 53 2 11 11 37 20 57 10 26
11 35 3 30 -9 -5 -9 -3 -1 8 10 12 16 31 30 84 1 6 5 26 8 45 4 19 9 42 11 50
11 37 27 164 29 222 0 21 5 38 9 38 4 0 3 9 -3 20 -6 11 -7 20 -3 20 10 0 10
241 0 257 -4 6 -3 14 3 18 6 4 7 12 3 18 -4 7 -8 23 -9 37 -1 14 -5 43 -8 65
-3 22 -9 63 -12 90 -3 28 -10 55 -14 60 -4 6 -6 18 -5 28 2 9 0 17 -4 17 -4 0
-7 8 -8 18 -3 39 -13 83 -23 102 -6 11 -7 20 -3 20 4 0 2 5 -4 11 -6 6 -9 18
-6 25 3 8 -1 14 -8 14 -7 0 -10 3 -7 6 6 6 -24 99 -35 111 -4 3 -7 15 -7 25 0
10 -5 18 -10 18 -6 0 -9 3 -8 8 3 8 -16 58 -31 82 -15 25 -35 74 -33 83 1 4
-2 7 -6 7 -5 0 -14 16 -22 35 -8 19 -17 35 -22 35 -4 0 -8 7 -8 15 0 8 -5 15
-11 15 -5 0 -8 4 -4 9 3 5 -6 22 -20 37 -13 14 -22 30 -19 35 3 5 -2 12 -10
15 -9 3 -16 12 -16 20 0 8 -4 14 -10 14 -5 0 -10 7 -10 15 0 8 -4 15 -10 15
-5 0 -10 6 -10 13 0 7 -9 19 -20 27 -11 8 -20 19 -20 25 0 5 -21 32 -45 58
-25 26 -45 52 -45 57 0 6 -8 10 -17 10 -9 0 -13 3 -10 6 4 4 -14 27 -38 51
-25 24 -45 49 -45 55 0 6 -3 9 -6 5 -4 -3 -21 10 -39 29 -18 18 -38 34 -44 34
-7 0 -9 5 -6 10 3 6 1 10 -5 10 -6 0 -21 10 -34 23 -38 36 -66 57 -76 57 -6 0
-10 5 -10 11 0 6 -7 9 -14 6 -10 -4 -13 -1 -10 7 3 8 -7 19 -25 27 -17 8 -31
17 -31 21 0 5 -7 8 -15 8 -8 0 -15 5 -15 10 0 6 -6 10 -13 10 -7 0 -22 8 -33
18 -11 9 -26 18 -34 20 -8 2 -16 8 -18 13 -2 5 -8 9 -14 9 -5 0 -23 9 -39 21
-16 11 -29 17 -29 13 0 -4 -8 0 -17 8 -26 22 -115 62 -135 61 -10 0 -16 3 -13
7 2 4 -13 12 -34 19 -22 6 -52 18 -67 26 -15 8 -31 12 -36 9 -4 -3 -8 -1 -8 4
0 7 -76 32 -105 33 -5 0 -16 5 -22 11 -9 8 -13 7 -13 -3 0 -11 -2 -11 -8 -1
-8 11 -46 23 -79 25 -7 0 -13 5 -13 11 0 6 -5 4 -10 -4 -6 -9 -10 -10 -10 -3
0 6 -9 10 -20 8 -11 -2 -20 0 -20 5 0 4 -16 7 -36 6 -20 -1 -38 2 -41 6 -2 5
-9 6 -14 3 -5 -4 -9 -1 -9 5 0 8 -6 8 -20 0 -11 -6 -20 -7 -20 -2 0 4 -10 8
-22 9 -62 2 -213 15 -219 19 -3 2 -8 1 -11 -1z"/>
</g>
</svg>
